:SAMPLES-PER-SECOND 30
:FULLY-SPECIFIED
:DEGREES
1510
root  14.0109 40.5956 10.022 153.525 85.4864 157.586
RightUpLeg  3.13803 -12.4801 -13.2418
RightLeg  7.35443 -11.3345 2.47661
RightFoot  -0.846238 -0.366816 3.91423
RightToes  0.000481921 0.542163 -0.142578
Spine  -1.63087 3.95871 10.2602
Spine1  14.3118 7.07915 -9.74439
HEad  14.247 -12.2921 7.59149
LeftShoulder1  9.59316 -16.6053 -41.361
LeftArm  -5.81771 18.291 -20.0956
LeftForeArm  160.72 -43.6574 -169.671
LeftHand  -0.25398 0.0180481 5.50724
RightShoulder  2.47551 7.3683 16.0718
RightArm  -28.8972 68.7501 33.7942
RightForeArm  -11.1138 -6.1365 3.04715
RightHand  -3.04507 11.5749 -21.0804
LeftUpLeg  2.93945 7.41832 8.37231
LeftLeg  1.07361 10.885 -3.37065
LeftFoot  3.74356 0.733288 -5.70912
LeftToes  1.06245e-005 4.65869e-005 -8.65517e-006
1511
root  14.0237 40.5962 10.0016 153.455 85.459 157.502
RightUpLeg  3.14307 -12.418 -13.2467
RightLeg  7.34841 -11.4071 2.39259
RightFoot  -0.838365 -0.372388 3.97607
RightToes  0.000481921 0.542163 -0.142578
Spine  -1.67866 3.94989 10.2946
Spine1  14.4195 7.08901 -9.78761
HEad  14.1725 -12.2902 7.70893
LeftShoulder1  9.6144 -16.6732 -41.3085
LeftArm  -5.88487 18.1511 -20.0608
LeftForeArm  160.643 -43.7551 -169.633
LeftHand  -0.25398 0.0180481 5.50724
RightShoulder  2.46119 7.32001 16.0383
RightArm  -28.9435 68.7986 33.6848
RightForeArm  -11.0137 -6.1402 3.05688
RightHand  -3.04383 11.6235 -21.015
LeftUpLeg  2.96524 7.43887 8.35277
LeftLeg  1.04185 10.8429 -3.43072
LeftFoot  3.72028 0.730383 -5.69131
LeftToes  1.06245e-005 4.65869e-005 -8.65517e-006
1512
root  14.0365 40.5974 9.98368 153.354 85.4342 157.34
RightUpLeg  3.0997 -12.3868 -13.2624
RightLeg  7.34099 -11.4476 2.34202
RightFoot  -0.829168 -0.378489 4.0532
RightToes  0.000481921 0.542163 -0.142578
Spine  -1.74421 3.96643 10.239
Spine1  14.4449 7.0888 -9.73866
HEad  14.1951 -12.3369 7.70828
LeftShoulder1  9.63081 -16.7122 -41.2982
LeftArm  -5.89882 18.0934 -20.1334
LeftForeArm  160.629 -43.7913 -169.62
LeftHand  -0.25398 0.0180481 5.50724
RightShoulder  2.45655 7.31246 16.0088
RightArm  -28.9524 68.8077 33.5605
RightForeArm  -11.13 -6.14453 3.09605
RightHand  -3.0686 11.6945 -21.0947
LeftUpLeg  2.93807 7.45126 8.3188
LeftLeg  1.01068 10.8324 -3.48416
LeftFoot  3.70896 0.726735 -5.65453
LeftToes  1.06245e-005 4.65869e-005 -8.65517e-006
1513
root  14.0502 40.5989 9.97007 153.205 85.388 157.122
RightUpLeg  3.07733 -12.4179 -13.3249
RightLeg  7.30833 -11.4443 2.36179
RightFoot  -0.81726 -0.382569 4.10063
RightToes  0.000481921 0.542163 -0.142578
Spine  -1.73545 3.99275 10.0602
Spine1  14.3158 7.04783 -9.54399
HEad  14.3303 -12.4429 7.61595
LeftShoulder1  9.6654 -16.7183 -41.4451
LeftArm  -5.87575 18.1519 -20.131
LeftForeArm  160.747 -43.7612 -169.638
LeftHand  -0.25398 0.0180481 5.50724
RightShoulder  2.44656 7.32943 15.8692
RightArm  -28.8708 68.7451 33.6413
RightForeArm  -11.2644 -6.14398 3.10884
RightHand  -3.0901 11.6789 -21.2541
LeftUpLeg  2.89276 7.41736 8.24596
LeftLeg  0.98149 10.8661 -3.49137
LeftFoot  3.71375 0.72297 -5.61296
LeftToes  1.06245e-005 4.65869e-005 -8.65517e-006
1514
root  14.0654 40.6003 9.96001 153.234 85.3408 157.118
RightUpLeg  3.10995 -12.4468 -13.3795
RightLeg  7.25496 -11.4465 2.39888
RightFoot  -0.804422 -0.384556 4.11486
RightToes  0.000481921 0.542163 -0.142578
Spine  -1.67236 4.00998 9.92044
Spine1  14.1609 7.0071 -9.3754
HEad  14.5298 -12.5901 7.48761
LeftShoulder1  9.69053 -16.6821 -41.642
LeftArm  -5.88494 18.2446 -20.0215
LeftForeArm  160.788 -43.7139 -169.656
LeftHand  -0.25398 0.0180481 5.50724
RightShoulder  2.42346 7.30734 15.6863
RightArm  -28.7436 68.7291 33.9004
RightForeArm  -10.8974 -6.14365 3.06342
RightHand  -3.09398 11.6856 -21.2717
LeftUpLeg  2.87738 7.37128 8.18832
LeftLeg  0.965716 10.88 -3.46882
LeftFoot  3.70872 0.721612 -5.60615
LeftToes  1.06245e-005 4.65869e-005 -8.65517e-006
1515
root  14.081 40.6017 9.95245 153.459 85.3236 157.336
RightUpLeg  3.16084 -12.428 -13.3829
RightLeg  7.2013 -11.4751 2.40754
RightFoot  -0.788917 -0.38626 4.12417
RightToes  0.000481921 0.542163 -0.142578
Spine  -1.64931 4.02532 9.89746
Spine1  14.1208 7.00894 -9.33276
HEad  14.7384 -12.6475 7.34042
LeftShoulder1  9.68333 -16.6283 -41.7289
LeftArm  -5.95736 18.3315 -19.938
LeftForeArm  160.509 -43.7005 -169.643
LeftHand  -0.25398 0.0180481 5.50724
RightShoulder  2.40173 7.24589 15.6055
RightArm  -28.6727 68.8139 34.1414
RightForeArm  -10.1329 -6.14554 2.9853
RightHand  -3.08136 11.776 -21.083
LeftUpLeg  2.89029 7.35505 8.1828
LeftLeg  0.967216 10.8558 -3.45375
LeftFoot  3.68645 0.721761 -5.62027
LeftToes  1.06245e-005 4.65869e-005 -8.65517e-006
1516
root  14.0944 40.6028 9.94817 153.696 85.3334 157.57
RightUpLeg  3.19927 -12.3961 -13.3622
RightLeg  7.15174 -11.4993 2.41009
RightFoot  -0.769667 -0.388169 4.13625
RightToes  0.000481921 0.542163 -0.142578
Spine  -1.68175 4.06032 9.89833
Spine1  14.1677 7.04198 -9.31349
HEad  14.9053 -12.5357 7.17613
LeftShoulder1  9.68344 -16.6092 -41.7722
LeftArm  -6.0501 18.4407 -19.8951
LeftForeArm  159.995 -43.7279 -169.602
LeftHand  -0.25398 0.0180481 5.50724
RightShoulder  2.39818 7.23321 15.5981
RightArm  -28.7136 68.8582 34.2089
RightForeArm  -9.74864 -6.14396 2.9322
RightHand  -3.06547 11.8328 -20.9137
LeftUpLeg  2.89791 7.36567 8.20445
LeftLeg  0.990019 10.8422 -3.44964
LeftFoot  3.6618 0.720958 -5.61713
LeftToes  1.06245e-005 4.65869e-005 -8.65517e-006
1517
root  14.1052 40.6037 9.94821 153.927 85.347 157.801
RightUpLeg  3.2399 -12.3855 -13.3458
RightLeg  7.09982 -11.5041 2.43383
RightFoot  -0.755095 -0.389568 4.1402
RightToes  0.000481921 0.542163 -0.142578
Spine  -1.70436 4.10596 9.85958
Spine1  14.2111 7.07325 -9.25089
HEad  14.9873 -12.3655 7.04759
LeftShoulder1  9.71467 -16.6236 -41.8849
LeftArm  -6.11495 18.5713 -19.7924
LeftForeArm  159.556 -43.7653 -169.562
LeftHand  -0.25398 0.0180481 5.50724
RightShoulder  2.41127 7.31102 15.5549
RightArm  -28.7985 68.7592 34.1017
RightForeArm  -10.0435 -6.13966 2.94071
RightHand  -3.06779 11.8036 -20.9625
LeftUpLeg  2.89003 7.38146 8.22822
LeftLeg  1.03672 10.8541 -3.43552
LeftFoot  3.63677 0.720249 -5.61322
LeftToes  1.06245e-005 4.65869e-005 -8.65517e-006
1518
root  14.1162 40.6041 9.95229 154.308 85.35 158.186
RightUpLeg  3.28891 -12.3785 -13.3187
RightLeg  7.05609 -11.5198 2.45926
RightFoot  -0.756351 -0.390318 4.13398
RightToes  0.000481921 0.542163 -0.142578
Spine  -1.71246 4.12393 9.83382
Spine1  14.2686 7.09688 -9.25173
HEad  15.0013 -12.2688 7.02891
LeftShoulder1  9.71898 -16.6135 -41.9277
LeftArm  -6.16701 18.681 -19.6846
LeftForeArm  159.373 -43.7758 -169.547
LeftHand  -0.25398 0.0180481 5.50724
RightShoulder  2.42979 7.40265 15.5356
RightArm  -28.805 68.6439 33.9145
RightForeArm  -10.3793 -6.14354 3.00197
RightHand  -3.08584 11.7965 -21.0884
LeftUpLeg  2.88753 7.39727 8.26398
LeftLeg  1.08054 10.8407 -3.41334
LeftFoot  3.60672 0.722024 -5.64607
LeftToes  1.06245e-005 4.65869e-005 -8.65517e-006
1519
root  14.1289 40.6046 9.95957 154.807 85.3393 158.682
RightUpLeg  3.31996 -12.3575 -13.2713
RightLeg  7.03818 -11.5682 2.46639
RightFoot  -0.771467 -0.390655 4.12144
RightToes  0.000481921 0.542163 -0.142578
Spine  -1.76423 4.10169 9.84668
Spine1  14.3967 7.12272 -9.38332
HEad  15.0296 -12.2095 7.0917
LeftShoulder1  9.64758 -16.5592 -41.7175
LeftArm  -6.24938 18.7497 -19.7422
LeftForeArm  159.407 -43.7487 -169.558
LeftHand  -0.25398 0.0180481 5.50724
RightShoulder  2.44919 7.42948 15.6699
RightArm  -28.6965 68.6722 33.72
RightForeArm  -10.2843 -6.16111 3.09391
RightHand  -3.0832 11.814 -21.0507
LeftUpLeg  2.8987 7.41516 8.3146
LeftLeg  1.07778 10.7775 -3.40656
LeftFoot  3.58801 0.724862 -5.69368
LeftToes  1.06245e-005 4.65869e-005 -8.65517e-006
